<svg width="100" height="100" viewBox="0 0 25 25" fill="none" xmlns="http://www.w3.org/2000/svg">
<path d="M12.1617 7.5C13.4877 7.5 14.7595 8.02678 15.6972 8.96447C16.6349 9.90215 17.1617 11.1739 17.1617 12.5C17.1617 13.8261 16.6349 15.0979 15.6972 16.0355C14.7595 16.9732 13.4877 17.5 12.1617 17.5C10.8356 17.5 9.56381 16.9732 8.62613 16.0355C7.68845 15.0979 7.16166 13.8261 7.16166 12.5C7.16166 11.1739 7.68845 9.90215 8.62613 8.96447C9.56381 8.02678 10.8356 7.5 12.1617 7.5ZM12.1617 10C11.4986 10 10.8627 10.2634 10.3939 10.7322C9.92506 11.2011 9.66166 11.837 9.66166 12.5C9.66166 13.163 9.92506 13.7989 10.3939 14.2678C10.8627 14.7366 11.4986 15 12.1617 15C12.8247 15 13.4606 14.7366 13.9294 14.2678C14.3983 13.7989 14.6617 13.163 14.6617 12.5C14.6617 11.837 14.3983 11.2011 13.9294 10.7322C13.4606 10.2634 12.8247 10 12.1617 10ZM9.66166 25C9.34916 25 9.08666 24.775 9.03666 24.475L8.57416 21.1625C7.78666 20.85 7.11166 20.425 6.46166 19.925L3.34916 21.1875C3.07416 21.2875 2.73667 21.1875 2.58666 20.9125L0.0866645 16.5875C-0.0758355 16.3125 -0.000835374 15.975 0.236665 15.7875L2.87416 13.7125L2.78666 12.5L2.87416 11.25L0.236665 9.2125C-0.000835374 9.025 -0.0758355 8.6875 0.0866645 8.4125L2.58666 4.0875C2.73667 3.8125 3.07416 3.7 3.34916 3.8125L6.46166 5.0625C7.11166 4.575 7.78666 4.15 8.57416 3.8375L9.03666 0.525C9.08666 0.225 9.34916 0 9.66166 0H14.6617C14.9742 0 15.2367 0.225 15.2867 0.525L15.7492 3.8375C16.5367 4.15 17.2117 4.575 17.8617 5.0625L20.9742 3.8125C21.2492 3.7 21.5867 3.8125 21.7367 4.0875L24.2367 8.4125C24.3992 8.6875 24.3242 9.025 24.0867 9.2125L21.4492 11.25L21.5367 12.5L21.4492 13.75L24.0867 15.7875C24.3242 15.975 24.3992 16.3125 24.2367 16.5875L21.7367 20.9125C21.5867 21.1875 21.2492 21.3 20.9742 21.1875L17.8617 19.9375C17.2117 20.425 16.5367 20.85 15.7492 21.1625L15.2867 24.475C15.2367 24.775 14.9742 25 14.6617 25H9.66166ZM11.2242 2.5L10.7617 5.7625C9.26167 6.075 7.93666 6.875 6.97416 7.9875L3.96166 6.6875L3.02416 8.3125L5.66166 10.25C5.16166 11.7125 5.16166 13.3 5.66166 14.75L3.01166 16.7L3.94916 18.325L6.98666 17.025C7.94916 18.125 9.26166 18.925 10.7492 19.225L11.2117 22.5H13.1117L13.5742 19.2375C15.0617 18.925 16.3742 18.125 17.3367 17.025L20.3742 18.325L21.3117 16.7L18.6617 14.7625C19.1617 13.3 19.1617 11.7125 18.6617 10.25L21.2992 8.3125L20.3617 6.6875L17.3492 7.9875C16.3867 6.875 15.0617 6.075 13.5617 5.775L13.0992 2.5H11.2242Z" fill="white"/>
</svg>
