<svg width="18" height="18" viewBox="0 0 18 18" fill="none" xmlns="http://www.w3.org/2000/svg">
<path d="M1.8 3.6H0V16.2C0 17.199 0.81 18 1.8 18H14.4V16.2H1.8V3.6ZM15.03 4.815L14.13 5.715L12.285 3.87L13.185 2.97C13.374 2.772 13.689 2.772 13.878 2.97L15.03 4.122C15.228 4.311 15.228 4.626 15.03 4.815ZM6.3 9.846L11.754 4.392L13.608 6.246L8.154 11.7H6.3V9.846ZM16.2 1.8V12.6H5.4V1.8H16.2ZM16.2 0H5.4C4.41 0 3.6 0.81 3.6 1.8V12.6C3.6 13.59 4.41 14.4 5.4 14.4H16.2C17.19 14.4 18 13.59 18 12.6V1.8C18 0.81 17.19 0 16.2 0Z" fill="#FFFFFF"/>
</svg>
